<?xml version="1.0" encoding="utf-8"?>
<!-- Generator: Adobe Illustrator 18.1.0, SVG Export Plug-In . SVG Version: 6.00 Build 0)  -->
<!DOCTYPE svg PUBLIC "-//W3C//DTD SVG 1.1//EN" "http://www.w3.org/Graphics/SVG/1.1/DTD/svg11.dtd">
<svg version="1.1" id="Layer_1" xmlns="http://www.w3.org/2000/svg" xmlns:xlink="http://www.w3.org/1999/xlink" x="0px" y="0px"
	 viewBox="0 0 35.5 43.4" enable-background="new 0 0 35.5 43.4" xml:space="preserve">
<path fill="#DDC069" d="M19,31.7c0-0.3,0-0.5-0.1-0.8c-0.1-0.2-0.1-0.5-0.2-0.7c-0.1-0.2-0.2-0.4-0.3-0.7c-0.2-0.2-0.3-0.4-0.4-0.6
	c-0.1-0.2-0.3-0.3-0.5-0.6c-0.2-0.2-0.4-0.4-0.5-0.5c-0.1-0.1-0.3-0.3-0.6-0.5c-0.3-0.2-0.5-0.4-0.6-0.4c-0.1-0.1-0.3-0.2-0.6-0.4
	c-0.3-0.2-0.5-0.4-0.6-0.4c-0.2,0-0.5,0-1,0c-0.7,0-1.4,0-2,0.1c-0.7,0.1-1.4,0.2-2.1,0.5c-0.7,0.2-1.3,0.5-1.9,0.9s-1,0.8-1.3,1.4
	c-0.3,0.6-0.5,1.3-0.5,2.1c0,0.9,0.2,1.7,0.7,2.3c0.5,0.7,1.1,1.2,1.8,1.6c0.7,0.4,1.5,0.7,2.3,0.9c0.8,0.2,1.6,0.3,2.4,0.3
	c0.8,0,1.5-0.1,2.2-0.2c0.7-0.2,1.3-0.4,1.9-0.8c0.6-0.3,1.1-0.8,1.4-1.4C18.9,33.2,19,32.5,19,31.7z M16.7,15.1
	c0-0.8-0.1-1.6-0.3-2.5c-0.2-0.9-0.5-1.7-0.9-2.5c-0.4-0.8-0.9-1.5-1.6-2c-0.7-0.5-1.5-0.8-2.3-0.8c-1.2,0-2.1,0.4-2.8,1.3
	c-0.7,0.9-1,1.9-1,3.2c0,0.6,0.1,1.2,0.2,1.9c0.1,0.7,0.4,1.3,0.7,2c0.3,0.7,0.7,1.3,1.1,1.8c0.4,0.5,0.9,1,1.5,1.3
	c0.6,0.3,1.2,0.5,1.9,0.5c1.2,0,2.1-0.4,2.7-1.2C16.5,17.4,16.7,16.4,16.7,15.1z M14.2,6h8.4L20,7.5h-2.6c0.9,0.6,1.6,1.4,2.1,2.4
	s0.8,2.1,0.8,3.2c0,0.9-0.1,1.8-0.4,2.5c-0.3,0.7-0.7,1.3-1.1,1.8c-0.4,0.4-0.8,0.9-1.3,1.2c-0.4,0.4-0.8,0.8-1.1,1.2
	c-0.3,0.4-0.4,0.8-0.4,1.3c0,0.3,0.1,0.7,0.3,1c0.2,0.3,0.5,0.6,0.8,0.9c0.3,0.3,0.7,0.6,1.1,0.9c0.4,0.3,0.8,0.7,1.2,1.1
	c0.4,0.4,0.8,0.8,1.1,1.3c0.3,0.5,0.6,1,0.8,1.6c0.2,0.6,0.3,1.3,0.3,2c0,2.1-0.9,3.9-2.7,5.4C17.1,37.2,14.4,38,11,38
	c-0.8,0-1.5-0.1-2.3-0.2c-0.8-0.1-1.6-0.3-2.3-0.6c-0.8-0.3-1.5-0.7-2.1-1.1c-0.6-0.4-1.1-1-1.5-1.7c-0.4-0.7-0.6-1.5-0.6-2.3
	c0-0.8,0.2-1.6,0.7-2.6c0.4-0.8,1-1.5,1.8-2.1c0.8-0.6,1.8-1.1,2.8-1.4c1-0.3,2-0.5,3-0.7c0.9-0.1,1.9-0.2,2.9-0.3
	c-0.8-1.1-1.2-2-1.2-2.9c0-0.2,0-0.3,0-0.5c0-0.1,0.1-0.3,0.1-0.4c0-0.1,0.1-0.2,0.2-0.4c0.1-0.2,0.1-0.3,0.1-0.4
	c-0.5,0.1-1,0.1-1.3,0.1c-1.9,0-3.5-0.6-4.9-1.9c-1.4-1.3-2-2.8-2-4.7c0-1.8,0.6-3.4,1.8-4.8c1.2-1.4,2.7-2.3,4.5-2.7
	C11.8,6.1,13,6,14.2,6z M34.2,10.9v2.5h-4.9v4.9h-2.5v-4.9h-4.9v-2.5h4.9V6h2.5v4.9H34.2z"/>
</svg>
