<?xml version="1.0" encoding="utf-8"?>
<!-- Generator: Adobe Illustrator 18.1.0, SVG Export Plug-In . SVG Version: 6.00 Build 0)  -->
<!DOCTYPE svg PUBLIC "-//W3C//DTD SVG 1.1//EN" "http://www.w3.org/Graphics/SVG/1.1/DTD/svg11.dtd">
<svg version="1.1" id="Layer_1" xmlns="http://www.w3.org/2000/svg" xmlns:xlink="http://www.w3.org/1999/xlink" x="0px" y="0px"
	 viewBox="0 0 38.2 43.4" enable-background="new 0 0 38.2 43.4" xml:space="preserve">
<path fill="#DDC069" d="M30.5,6.8h-24c-2.2,0-4,1.8-4,4v24c0,2.2,1.8,4,4,4h24c2.2,0,4-1.8,4-4v-24C34.5,8.6,32.7,6.8,30.5,6.8z
	 M18.5,18.8c3.7,0,4,4,4,4s0.1,4-4,4c-4.1,0-4-4-4-4S14.8,18.8,18.5,18.8z M30.5,32.8c0,1.1-0.9,2-2,2h-20c-1.1,0-2-0.9-2-2v-10
	c0-1.1,0.9-2,2-2h2.3c-0.2,0.6-0.3,1.3-0.3,2c0,4.4,3.6,8,8,8s8-3.6,8-8c0-0.7-0.1-1.4-0.3-2h2.3c1.1,0,2,0.9,2,2V32.8z M30.5,14.8
	c0,1.1-0.9,2-2,2h-2c-1.1,0-2-0.9-2-2v-2c0-1.1,0.9-2,2-2h2c1.1,0,2,0.9,2,2V14.8z"/>
</svg>
