<?xml version="1.0" encoding="utf-8"?>
<!-- Generator: Adobe Illustrator 18.1.0, SVG Export Plug-In . SVG Version: 6.00 Build 0)  -->
<!DOCTYPE svg PUBLIC "-//W3C//DTD SVG 1.1//EN" "http://www.w3.org/Graphics/SVG/1.1/DTD/svg11.dtd">
<svg version="1.1" id="Layer_1" xmlns="http://www.w3.org/2000/svg" xmlns:xlink="http://www.w3.org/1999/xlink" x="0px" y="0px"
	 viewBox="0 0 360 288" enable-background="new 0 0 360 288" xml:space="preserve">
<g>
	<path fill="#2C5F5B" d="M32.6,163.8H22.4v-9.7h30.1v9.7H42.3V218h-9.6V163.8z"/>
	<path fill="#2C5F5B" d="M95.4,154.1h10.1l-10,63.8h-9.2l-5.5-35.1l-5.1,35.1h-9.2l-10.7-63.8h10.1l5,34.2l4.7-34.2h10.1l5,34.1
		L95.4,154.1z"/>
	<path fill="#2C5F5B" d="M119.7,217.9h-9.6v-63.8h9.6V217.9z"/>
	<path fill="#2C5F5B" d="M137.3,154.1L150,197v-42.9h9.6v63.8h-10.3L136.1,177v40.9h-9.6v-63.8H137.3z"/>
	<path fill="#2C5F5B" d="M192.4,217.9h-9.6v-63.8h27.4v9.7h-17.8v17.4h13v9.7h-13V217.9L192.4,217.9z"/>
	<path fill="#2C5F5B" d="M225.7,217.9h-9.6v-63.8h9.6V217.9z"/>
	<path fill="#2C5F5B" d="M244,154.1l12.7,42.9v-42.9h9.6v63.8H256L242.7,177v40.9h-9.6v-63.8H244z"/>
	<path fill="#2C5F5B" d="M287.3,218.7c-4.3,0-7.9-1.4-10.8-4.4s-4.4-6.6-4.4-10.8v-34.9c0-4.3,1.5-7.9,4.5-10.8
		c3-3,6.6-4.4,10.8-4.4c4.3,0,7.9,1.5,10.8,4.5c3,3,4.4,6.6,4.4,10.8v7.2h-10v-7.5c0-1.5-0.5-2.8-1.6-3.9c-1.1-1.1-2.4-1.6-3.9-1.6
		c-1.5,0-2.8,0.5-3.9,1.6c-1.1,1.1-1.6,2.4-1.6,3.9v34.9c0,1.5,0.5,2.8,1.6,3.9c1.1,1.1,2.4,1.6,3.9,1.6c1.5,0,2.8-0.5,3.9-1.6
		c1.1-1.1,1.6-2.4,1.6-3.9v-8.8h10v8.8c0,4.3-1.5,7.9-4.5,10.8C295,217.3,291.4,218.7,287.3,218.7z"/>
	<path fill="#2C5F5B" d="M317.9,190.9v27h-9.6v-63.8h9.6v27.1h11.6v-27.1h9.6v63.8h-9.6v-27H317.9z"/>
</g>
<g>
	<path fill="#2C5F5B" d="M124.8,245.7c0.5,0.5,1,1,1.4,1.6c0.4,0.6,0.7,1.2,0.9,1.8c0.2,0.6,0.5,1.3,0.5,1.9
		c0.1,0.6,0.2,1.2,0.2,1.8h-2.1h-2.1c0-0.2,0-0.4-0.1-0.6c0-0.3-0.1-0.6-0.2-1c-0.1-0.4-0.2-0.8-0.4-1.1c-0.2-0.4-0.5-0.8-0.8-1.1
		c-0.3-0.3-0.7-0.6-1.2-0.8c-0.5-0.2-1.1-0.3-1.8-0.3h-5v5h-4.1v-20.2h9.1c0.1,0,0.3,0,0.6,0.1c0.3,0,0.8,0.1,1.2,0.2
		c0.5,0.2,1,0.4,1.5,0.6c0.5,0.3,1.1,0.7,1.6,1.2c1.5,1.5,2.3,3.6,2.3,6.3c0,1.1-0.2,2-0.5,2.7C125.8,244.4,125.3,245.1,124.8,245.7
		z M119.4,243.8c0.2,0,0.5,0,0.8-0.1c0.4-0.1,0.7-0.2,1-0.4c0.3-0.2,0.6-0.5,0.8-0.8c0.2-0.4,0.4-0.8,0.4-1.4c0-0.9-0.2-1.7-0.4-2.3
		c-0.2-0.5-0.5-1-0.9-1.3c-0.3-0.3-0.7-0.5-1.1-0.5c-0.4-0.1-0.6-0.2-0.8-0.2h-5v6.9L119.4,243.8L119.4,243.8z"/>
	<path fill="#2C5F5B" d="M139.3,252.8c-1.4,0-2.7-0.2-3.9-0.8c-1.2-0.5-2.3-1.2-3.2-2.1c-0.9-0.9-1.6-2-2.1-3.2
		c-0.5-1.2-0.8-2.5-0.8-3.9c0-1.4,0.2-2.7,0.8-3.9c0.5-1.2,1.2-2.3,2.1-3.2c0.9-0.9,2-1.7,3.2-2.2c1.2-0.5,2.5-0.8,3.9-0.8
		s2.7,0.2,3.9,0.8c1.2,0.5,2.3,1.2,3.2,2.2c0.9,0.9,1.6,2,2.1,3.2c0.5,1.2,0.8,2.5,0.8,3.9c0,1.4-0.2,2.7-0.8,3.9
		c-0.5,1.2-1.2,2.3-2.1,3.2c-0.9,0.9-2,1.7-3.2,2.1C142,252.5,140.7,252.8,139.3,252.8z M139.3,236.7c-0.8,0-1.6,0.2-2.3,0.5
		s-1.4,0.8-1.9,1.3c-0.5,0.5-1,1.1-1.3,1.9c-0.3,0.7-0.5,1.4-0.5,2.3c0,0.8,0.2,1.6,0.5,2.3c0.3,0.7,0.8,1.4,1.3,1.9
		c0.5,0.5,1.1,1,1.9,1.3c0.7,0.3,1.4,0.5,2.3,0.5s1.6-0.2,2.3-0.5c0.7-0.3,1.4-0.8,1.9-1.3c0.5-0.5,1-1.1,1.3-1.9
		c0.3-0.7,0.5-1.4,0.5-2.3c0-0.8-0.2-1.6-0.5-2.3s-0.8-1.4-1.3-1.9c-0.5-0.5-1.1-1-1.9-1.3S140.1,236.7,139.3,236.7z"/>
	<path fill="#2C5F5B" d="M164.5,252.8l-1.1-3h-8.2l-1.1,3h-4.6l7.2-20.2h5l7.2,20.2H164.5z M156.8,245.7h5.2l-2.6-7.2L156.8,245.7z"
		/>
	<path fill="#2C5F5B" d="M177.9,253c-1,0-2-0.2-2.9-0.5c-0.9-0.3-1.7-0.8-2.4-1.3c-0.7-0.5-1.2-1.2-1.6-1.9
		c-0.4-0.8-0.6-1.5-0.6-2.4h4.2c0,0.2,0.1,0.4,0.2,0.6s0.4,0.5,0.7,0.6c0.3,0.2,0.6,0.4,1.1,0.5c0.4,0.2,0.8,0.2,1.4,0.2
		c0.8,0,1.4-0.1,2-0.3c0.5-0.2,0.8-0.4,1.1-0.6s0.5-0.5,0.5-0.9c0-0.2,0-0.5-0.1-0.7c0-0.2-0.2-0.5-0.2-0.6
		c-0.2-0.3-0.7-0.5-1.3-0.8c-0.6-0.2-1.4-0.2-2.3-0.2c-0.7,0-1.3-0.1-1.9-0.2c-0.5-0.2-1.1-0.3-1.4-0.5c-0.5-0.2-0.8-0.4-1.1-0.6
		s-0.5-0.5-0.8-0.7c-0.4-0.5-0.7-0.9-0.9-1.4c-0.2-0.5-0.4-0.9-0.5-1.4c-0.1-0.5-0.2-0.8-0.2-1.1s0-0.5,0-0.7c0-0.2,0-0.3,0.1-0.6
		c0-0.3,0.1-0.6,0.2-0.9c0.2-0.4,0.3-0.7,0.5-1.1c0.2-0.4,0.5-0.8,0.8-1.1c1.4-1.4,3.2-2,5.6-2c2.4,0,4.2,0.7,5.5,2.1
		c0.5,0.5,0.8,1,1.1,1.4c0.2,0.5,0.5,1,0.5,1.4c0.1,0.5,0.2,0.8,0.2,1.1c0,0.3,0,0.5,0,0.6l-4.2-0.2v0.1c0-0.2,0-0.5-0.1-0.8
		s-0.2-0.5-0.5-0.8c-0.2-0.2-0.5-0.5-1-0.6s-1-0.2-1.7-0.2s-1.2,0.1-1.6,0.2c-0.4,0.2-0.7,0.3-0.9,0.5c-0.2,0.2-0.4,0.4-0.5,0.6
		s-0.1,0.4-0.1,0.5v0.2l0,0c0,0.2,0,0.4,0.1,0.5c0,0.2,0.1,0.3,0.2,0.5s0.2,0.3,0.3,0.5c0.5,0.5,1.1,0.6,2.1,0.6
		c2.6,0,4.6,0.5,6,1.7c1.4,1.1,2.1,2.7,2.1,4.8c0,0.6-0.2,1.2-0.5,1.9c-0.3,0.7-0.8,1.4-1.4,2c-0.6,0.6-1.4,1.1-2.4,1.5
		C180.5,252.8,179.3,253,177.9,253z"/>
	<path fill="#2C5F5B" d="M201.7,236.8h-4.7v16h-4.2v-16h-4.7v-4.2h13.6L201.7,236.8L201.7,236.8z"/>
	<path fill="#2C5F5B" d="M209.4,236.8v4.1h9.1v4.2h-9.1v3.4h9.5v4.2h-13.7v-20.1h13.7v4.2H209.4z"/>
	<path fill="#2C5F5B" d="M238,245.7c0.5,0.5,1,1,1.4,1.6c0.4,0.6,0.7,1.2,0.9,1.8c0.2,0.6,0.5,1.3,0.5,1.9s0.2,1.2,0.2,1.8H239h-2.1
		c0-0.2,0-0.4-0.1-0.6c0-0.3-0.1-0.6-0.2-1c-0.1-0.4-0.2-0.8-0.4-1.1c-0.2-0.4-0.5-0.8-0.8-1.1s-0.7-0.6-1.2-0.8
		c-0.5-0.2-1.1-0.3-1.8-0.3h-5v5h-4.1v-20.2h9.2c0.1,0,0.3,0,0.6,0.1c0.3,0,0.8,0.1,1.2,0.2c0.5,0.2,1,0.4,1.5,0.6
		c0.5,0.3,1.1,0.7,1.6,1.2c1.5,1.5,2.3,3.6,2.3,6.3c0,1.1-0.2,2-0.5,2.7C239,244.4,238.6,245.1,238,245.7z M232.6,243.8
		c0.2,0,0.5,0,0.8-0.1c0.4-0.1,0.7-0.2,1-0.4c0.3-0.2,0.6-0.5,0.8-0.8c0.2-0.4,0.4-0.8,0.4-1.4c0-0.9-0.2-1.7-0.4-2.3
		c-0.2-0.5-0.5-1-0.9-1.3c-0.3-0.3-0.7-0.5-1.1-0.5c-0.4-0.1-0.6-0.2-0.8-0.2h-5v6.9L232.6,243.8L232.6,243.8z"/>
	<path fill="#2C5F5B" d="M251.5,246.4v6.4h-4.2v-6.3l-6.4-13.8h4.6l4,9.8l4-9.8h4.5L251.5,246.4z"/>
</g>
<rect x="22.9" y="241.5" fill="#FFFFFF" width="80.1" height="1.1"/>
<rect x="260.1" y="241.5" fill="#FFFFFF" width="80.2" height="1.1"/>
<rect x="22.9" y="140.2" fill="#2C5F5B" width="317.4" height="1.1"/>
<rect x="22.9" y="136" fill="#2C5F5B" width="317.4" height="2.3"/>
<g>
	<path fill="#2C5F5B" d="M78.9,122.5c2.7,0,3.1-0.6,3.6-0.6c0.9,0.3,2.6,0.3,3.7,0.1c1.1,0.8,2.5,2.2,11.5-2.1
		c1.6,0.2,4,1.1,6.7,1.1c1.8,2.2,3.6,3.7,6.8,3.4c2.6,0.9,3.6,0.8,3.6,0.8l0.1,0.1c0.4-0.2,0.7-0.2,1.1-0.2c0.5,0,1,0.2,1.4,0.3l0,0
		c1.2,0.1,11.4,0.7,18.2-0.8c6.7-1.5,14.3-5.5,18.3-8.5s13.8-14.2,14.9-24.6s-1.5-16.6-3.5-21.9c-2-5.3-0.2-8.9,0.6-10.7
		c0.8-1.8,1.6-5.9,1.7-6.4c0.1-0.5,5.9-7.9,5.9-7.9s-2.9-2.5-13.8-3.3c-1.1-0.5-7.3-2.1-17.2,5c-9.8,7.1-6.9,15.5-16,24.7
		S108.8,92,107,93.9c-1.9,1.9-6.8,5.6-6.8,9c2-1.7,2-1.7,2-1.7l0.1,1.1h2.6c0,0-4.8,5-7.6,6.9C94.4,111.1,80.9,121.5,78.9,122.5z
		 M153.5,50.1c0.8-4.4,4.5-4,4.5-4s2.4,2.1,0.6,5C157,52.2,155.6,51.6,153.5,50.1z"/>
	<path fill="#2C5F5B" d="M264.3,109.3c-2.8-1.9-7.6-6.9-7.6-6.9h2.6l0.1-1.1c0,0,0,0,2,1.7c0-3.4-5-7.1-6.8-9
		c-1.9-1.9-10.4-13.7-19.4-23s-6.2-17.6-16-24.7c-9.8-7.1-16-5.6-17.2-5c-10.9,0.8-13.8,3.3-13.8,3.3s5.9,7.4,5.9,7.9
		c0.1,0.5,0.8,4.6,1.7,6.4c0.8,1.8,2.6,5.3,0.6,10.7c-2,5.3-4.6,11.4-3.5,21.9s10.8,21.6,14.9,24.6c4,3.1,11.6,7,18.3,8.5
		c6.7,1.5,16.9,0.9,18.2,0.8l0,0c0.4-0.2,0.9-0.3,1.4-0.3c0.4,0,0.8,0.1,1.1,0.2l0.1-0.1c0,0,0.9,0.1,3.6-0.8c3.3,0.3,5-1.1,6.8-3.4
		c2.7-0.1,5.1-0.9,6.7-1.1c9,4.3,10.4,2.9,11.5,2.1c1.1,0.2,2.8,0.2,3.7-0.1c0.4,0,0.8,0.6,3.6,0.6
		C280.6,121.5,267.1,111.1,264.3,109.3z M202.9,51.1c-1.7-2.8,0.7-5,0.7-5s3.7-0.4,4.5,4C205.9,51.6,204.6,52.2,202.9,51.1z"/>
</g>
<rect x="22.9" y="245" fill="#FFFFFF" width="80.1" height="0.4"/>
<rect x="260.1" y="245" fill="#FFFFFF" width="80.2" height="0.4"/>
</svg>
