<?xml version="1.0" encoding="utf-8"?>
<!-- Generator: Adobe Illustrator 18.1.0, SVG Export Plug-In . SVG Version: 6.00 Build 0)  -->
<!DOCTYPE svg PUBLIC "-//W3C//DTD SVG 1.1//EN" "http://www.w3.org/Graphics/SVG/1.1/DTD/svg11.dtd">
<svg version="1.1" id="Layer_1" xmlns="http://www.w3.org/2000/svg" xmlns:xlink="http://www.w3.org/1999/xlink" x="0px" y="0px"
	 viewBox="0 0 472 304" enable-background="new 0 0 472 304" xml:space="preserve">
<g>
	<path fill="#FFFFFF" d="M42.8,178H29.4v-12.7h39.4V178H55.4v71H42.8V178z"/>
	<path fill="#FFFFFF" d="M125.1,165.3h13.2l-13.1,83.6h-12l-7.2-46l-6.7,46H87.2l-14-83.6h13.2l6.6,44.8l6.1-44.8h13.2l6.6,44.7
		L125.1,165.3z"/>
	<path fill="#FFFFFF" d="M156.9,248.9h-12.6v-83.6h12.6V248.9z"/>
	<path fill="#FFFFFF" d="M180,165.2l16.7,56.3v-56.3h12.6v83.7h-13.5l-17.4-53.6v53.6h-12.6v-83.7H180z"/>
	<path fill="#FFFFFF" d="M252.2,248.9h-12.6v-83.7h35.9v12.7h-23.3v22.8h17v12.7h-17V248.9z"/>
	<path fill="#FFFFFF" d="M295.9,248.9h-12.6v-83.6h12.6V248.9z"/>
	<path fill="#FFFFFF" d="M319.9,165.2l16.7,56.3v-56.3h12.6v83.7h-13.6l-17.4-53.6v53.6h-12.6v-83.7H319.9z"/>
	<path fill="#FFFFFF" d="M376.7,250c-5.6,0-10.3-1.9-14.2-5.8c-3.9-3.9-5.8-8.6-5.8-14.1v-45.7c0-5.6,2-10.3,5.9-14.2
		c3.9-3.9,8.6-5.8,14.2-5.8c5.6,0,10.3,2,14.2,5.9c3.9,3.9,5.8,8.6,5.8,14.2v9.5h-13.1v-9.8c0-2-0.7-3.7-2.1-5.1
		c-1.4-1.4-3.1-2.1-5.1-2.1c-2,0-3.7,0.7-5.1,2.1c-1.4,1.4-2.1,3.1-2.1,5.1v45.8c0,2,0.7,3.7,2.1,5.1c1.4,1.4,3.1,2.1,5.1,2.1
		c2,0,3.7-0.7,5.1-2.1c1.4-1.4,2.1-3.1,2.1-5.1v-11.5h13.1V230c0,5.6-2,10.3-5.9,14.2C386.8,248.1,382.1,250,376.7,250z"/>
	<path fill="#FFFFFF" d="M416.8,213.5v35.4h-12.6v-83.6h12.6v35.5H432v-35.5h12.6v83.6H432v-35.4H416.8z"/>
</g>
<g>
	<path fill="#FFFFFF" d="M163.6,285.3c0.7,0.6,1.3,1.3,1.8,2.1c0.5,0.8,0.9,1.6,1.2,2.4c0.3,0.8,0.6,1.7,0.7,2.5
		c0.1,0.8,0.2,1.6,0.2,2.4h-2.7h-2.7c0-0.2,0-0.5-0.1-0.8c0-0.4-0.1-0.8-0.2-1.3c-0.1-0.5-0.3-1-0.5-1.5c-0.2-0.5-0.6-1-1-1.4
		s-0.9-0.8-1.6-1c-0.6-0.3-1.4-0.4-2.3-0.4h-6.5v6.5h-5.4v-26.5h11.9c0.1,0,0.4,0,0.8,0.1c0.4,0,1,0.1,1.6,0.3
		c0.6,0.2,1.3,0.5,2,0.8c0.7,0.4,1.4,0.9,2.1,1.6c2,2,3,4.7,3,8.2c0,1.4-0.2,2.6-0.6,3.6C164.9,283.7,164.3,284.6,163.6,285.3z
		 M156.5,282.8c0.3,0,0.7,0,1.1-0.1c0.5-0.1,0.9-0.3,1.3-0.5c0.4-0.3,0.8-0.6,1.1-1.1c0.3-0.5,0.5-1.1,0.5-1.9c0-1.2-0.2-2.2-0.5-3
		c-0.3-0.7-0.7-1.3-1.2-1.7c-0.4-0.4-0.9-0.6-1.4-0.7c-0.5-0.1-0.8-0.2-1-0.2h-6.5v9.1H156.5z"/>
	<path fill="#FFFFFF" d="M182.7,294.7c-1.8,0-3.5-0.3-5.1-1c-1.6-0.7-3-1.6-4.2-2.8c-1.2-1.2-2.1-2.6-2.8-4.2c-0.7-1.6-1-3.3-1-5.1
		c0-1.8,0.3-3.5,1-5.1c0.7-1.6,1.6-3,2.8-4.2c1.2-1.2,2.6-2.2,4.2-2.9c1.6-0.7,3.3-1,5.1-1c1.8,0,3.5,0.3,5.1,1
		c1.6,0.7,3,1.6,4.2,2.9c1.2,1.2,2.1,2.6,2.8,4.2c0.7,1.6,1,3.3,1,5.1c0,1.8-0.3,3.5-1,5.1c-0.7,1.6-1.6,3-2.8,4.2
		c-1.2,1.2-2.6,2.2-4.2,2.8C186.2,294.3,184.5,294.7,182.7,294.7z M182.7,273.6c-1.1,0-2.1,0.2-3,0.6c-0.9,0.4-1.8,1-2.5,1.7
		c-0.7,0.7-1.3,1.5-1.7,2.5c-0.4,0.9-0.6,1.9-0.6,3c0,1.1,0.2,2.1,0.6,3c0.4,0.9,1,1.8,1.7,2.5c0.7,0.7,1.5,1.3,2.5,1.7
		c0.9,0.4,1.9,0.6,3,0.6c1.1,0,2.1-0.2,3-0.6c0.9-0.4,1.8-1,2.5-1.7c0.7-0.7,1.3-1.5,1.7-2.5c0.4-0.9,0.6-1.9,0.6-3
		c0-1.1-0.2-2.1-0.6-3c-0.4-0.9-1-1.8-1.7-2.5c-0.7-0.7-1.5-1.3-2.5-1.7C184.7,273.8,183.7,273.6,182.7,273.6z"/>
	<path fill="#FFFFFF" d="M215.7,294.7l-1.4-3.9h-10.7l-1.4,3.9h-6l9.5-26.5h6.5l9.5,26.5H215.7z M205.6,285.3h6.8l-3.4-9.5
		L205.6,285.3z"/>
	<path fill="#FFFFFF" d="M233.2,294.9c-1.3,0-2.6-0.2-3.8-0.7c-1.2-0.4-2.2-1-3.1-1.7c-0.9-0.7-1.6-1.6-2.1-2.5
		c-0.5-1-0.8-2-0.8-3.1h5.5c0,0.2,0.1,0.5,0.3,0.8c0.2,0.3,0.5,0.6,0.9,0.8c0.4,0.3,0.8,0.5,1.4,0.7c0.5,0.2,1.1,0.3,1.8,0.3
		c1.1,0,1.9-0.1,2.6-0.4c0.6-0.3,1.1-0.5,1.4-0.8c0.3-0.3,0.6-0.7,0.7-1.2c0-0.3,0-0.6-0.1-0.9c0-0.3-0.2-0.6-0.3-0.8
		c-0.3-0.4-0.9-0.7-1.7-1c-0.8-0.2-1.8-0.3-3-0.3c-0.9,0-1.7-0.1-2.5-0.3c-0.7-0.2-1.4-0.4-1.9-0.6c-0.6-0.3-1-0.5-1.4-0.8
		c-0.4-0.3-0.7-0.6-1-0.9c-0.5-0.6-0.9-1.2-1.2-1.8c-0.3-0.6-0.5-1.2-0.6-1.8c-0.1-0.6-0.2-1.1-0.2-1.5c0-0.4,0-0.7,0-0.9
		c0-0.2,0-0.4,0.1-0.8c0-0.4,0.1-0.8,0.3-1.2c0.2-0.5,0.4-0.9,0.6-1.5c0.3-0.5,0.7-1,1.1-1.5c1.8-1.8,4.2-2.6,7.3-2.6
		c3.1,0,5.5,0.9,7.2,2.7c0.6,0.6,1.1,1.3,1.4,1.9c0.3,0.7,0.6,1.3,0.7,1.9c0.1,0.6,0.2,1.1,0.3,1.5c0,0.4,0,0.7,0,0.8l-5.5-0.2v0.1
		c0-0.3,0-0.6-0.1-1c-0.1-0.4-0.3-0.7-0.6-1c-0.3-0.3-0.7-0.6-1.3-0.8c-0.6-0.2-1.3-0.3-2.2-0.3c-0.9,0-1.6,0.1-2.1,0.3
		c-0.5,0.2-0.9,0.4-1.2,0.6c-0.3,0.2-0.5,0.5-0.6,0.8c-0.1,0.3-0.1,0.5-0.1,0.7v0.3l0,0c0,0.2,0,0.5,0.1,0.7c0,0.2,0.1,0.4,0.2,0.6
		c0.1,0.2,0.2,0.4,0.4,0.6c0.6,0.6,1.5,0.8,2.8,0.8c3.4,0,6,0.7,7.9,2.2c1.9,1.5,2.8,3.6,2.8,6.3c0,0.8-0.2,1.6-0.6,2.5
		c-0.4,0.9-1,1.8-1.8,2.6c-0.8,0.8-1.9,1.5-3.2,2C236.7,294.7,235.1,294.9,233.2,294.9z"/>
	<path fill="#FFFFFF" d="M264.5,273.7h-6.1v21h-5.5v-21h-6.1v-5.5h17.8V273.7z"/>
	<path fill="#FFFFFF" d="M274.6,273.7v5.4h11.9v5.5h-11.9v4.5H287v5.5h-17.9v-26.4H287v5.5H274.6z"/>
	<path fill="#FFFFFF" d="M312.1,285.3c0.7,0.6,1.3,1.3,1.8,2.1c0.5,0.8,0.9,1.6,1.2,2.4c0.3,0.8,0.6,1.7,0.7,2.5
		c0.1,0.8,0.2,1.6,0.2,2.4h-2.7h-2.7c0-0.2,0-0.5-0.1-0.8c0-0.4-0.1-0.8-0.2-1.3c-0.1-0.5-0.3-1-0.5-1.5c-0.2-0.5-0.6-1-1-1.4
		s-0.9-0.8-1.6-1c-0.6-0.3-1.4-0.4-2.3-0.4h-6.5v6.5h-5.4v-26.5H305c0.1,0,0.4,0,0.8,0.1c0.4,0,1,0.1,1.6,0.3c0.6,0.2,1.3,0.5,2,0.8
		c0.7,0.4,1.4,0.9,2.1,1.6c2,2,3,4.7,3,8.2c0,1.4-0.2,2.6-0.6,3.6C313.4,283.7,312.8,284.6,312.1,285.3z M305,282.8
		c0.3,0,0.7,0,1.1-0.1c0.5-0.1,0.9-0.3,1.3-0.5c0.4-0.3,0.8-0.6,1.1-1.1c0.3-0.5,0.5-1.1,0.5-1.9c0-1.2-0.2-2.2-0.5-3
		c-0.3-0.7-0.7-1.3-1.2-1.7c-0.4-0.4-0.9-0.6-1.4-0.7c-0.5-0.1-0.8-0.2-1-0.2h-6.5v9.1H305z"/>
	<path fill="#FFFFFF" d="M329.7,286.3v8.4h-5.5v-8.3l-8.4-18.1h6l5.3,12.8l5.3-12.8h5.9L329.7,286.3z"/>
</g>
<rect x="30" y="279.8" fill="#FFFFFF" width="105" height="1.5"/>
<rect x="341" y="279.8" fill="#FFFFFF" width="105.2" height="1.5"/>
<rect x="30" y="147" fill="#FFFFFF" width="416.2" height="1.5"/>
<rect x="30" y="141.5" fill="#FFFFFF" width="416.2" height="3"/>
<g>
	<path fill="#FFFFFF" d="M103.5,123.8c3.6,0,4.1-0.8,4.7-0.8c1.2,0.4,3.4,0.4,4.9,0.1c1.4,1.1,3.3,2.9,15.1-2.7
		c2.1,0.3,5.2,1.4,8.8,1.5c2.3,2.9,4.7,4.8,8.9,4.4c3.4,1.2,4.7,1.1,4.7,1.1l0.1,0.1c0.5-0.2,0.9-0.3,1.4-0.3c0.6,0,1.3,0.2,1.8,0.4
		c0,0,0,0,0,0c1.6,0.1,15,0.9,23.8-1.1c8.8-2,18.7-7.2,24-11.2c5.3-4,18.1-18.6,19.5-32.3c1.4-13.7-2-21.7-4.6-28.7
		c-2.6-7-0.3-11.7,0.8-14c1.1-2.3,2.1-7.7,2.2-8.4c0.1-0.7,7.8-10.4,7.8-10.4s-3.8-3.3-18.1-4.3c-1.5-0.7-9.6-2.7-22.5,6.6
		c-12.9,9.3-9.1,20.3-21,32.4c-11.9,12.1-23.1,27.6-25.5,30.1c-2.5,2.5-8.9,7.3-8.9,11.8c2.6-2.2,2.6-2.2,2.6-2.2l0.1,1.5h3.4
		c0,0-6.3,6.6-10,9.1C123.8,108.9,106.1,122.5,103.5,123.8z M201.3,28.9c1.1-5.8,5.9-5.2,5.9-5.2s3.1,2.8,0.8,6.5
		C205.8,31.6,204,30.9,201.3,28.9z"/>
	<path fill="#FFFFFF" d="M346.5,106.5c-3.7-2.5-10-9.1-10-9.1h3.4l0.1-1.5c0,0,0,0,2.6,2.2c0-4.5-6.5-9.3-8.9-11.8
		c-2.5-2.5-13.6-18-25.5-30.1c-11.9-12.1-8.1-23.1-21-32.4c-12.9-9.3-21-7.3-22.5-6.6c-14.3,1-18.1,4.3-18.1,4.3s7.7,9.7,7.8,10.4
		c0.1,0.7,1.1,6,2.2,8.4c1.1,2.3,3.4,7,0.8,14c-2.6,7-6,15-4.6,28.7c1.4,13.7,14.2,28.3,19.5,32.3c5.3,4,15.2,9.2,24,11.2
		c8.8,2,22.1,1.2,23.8,1.1c0,0,0,0,0,0c0.5-0.3,1.2-0.4,1.8-0.4c0.5,0,1,0.1,1.4,0.3l0.1-0.1c0,0,1.2,0.1,4.7-1.1
		c4.3,0.4,6.6-1.5,8.9-4.4c3.6-0.1,6.7-1.2,8.8-1.5c11.8,5.6,13.7,3.8,15.1,2.7c1.5,0.3,3.7,0.3,4.9-0.1c0.5,0,1.1,0.8,4.7,0.8
		C367.9,122.5,350.2,108.9,346.5,106.5z M266,30.2c-2.2-3.7,0.9-6.5,0.9-6.5s4.8-0.5,5.9,5.2C270,30.9,268.2,31.6,266,30.2z"/>
</g>
<rect x="30" y="284.4" fill="#FFFFFF" width="105" height="0.5"/>
<rect x="341" y="284.4" fill="#FFFFFF" width="105.2" height="0.5"/>
</svg>
